<svg width="40" height="40" viewBox="0 0 40 40" fill="none" xmlns="http://www.w3.org/2000/svg" xmlns:xlink="http://www.w3.org/1999/xlink">
<path d="M20,16.25C19.005,16.25 18.052,16.645 17.348,17.348C16.645,18.052 16.25,19.005 16.25,20C16.25,20.995 16.645,21.948 17.348,22.652C18.052,23.355 19.005,23.75 20,23.75C20.995,23.75 21.948,23.355 22.652,22.652C23.355,21.948 23.75,20.995 23.75,20C23.75,19.005 23.355,18.052 22.652,17.348C21.948,16.645 20.995,16.25 20,16.25Z" fill="#FFFFFF"/>
<path d="M20,9.167C15.637,9.167 11.713,10.918 8.887,13.088C7.47,14.175 6.308,15.382 5.493,16.555C4.693,17.708 4.167,18.918 4.167,20C4.167,21.082 4.695,22.292 5.493,23.443C6.31,24.618 7.47,25.825 8.887,26.91C11.713,29.083 15.637,30.833 20,30.833C24.363,30.833 28.287,29.082 31.113,26.912C32.53,25.825 33.692,24.618 34.505,23.445C35.305,22.292 35.833,21.082 35.833,20C35.833,18.918 35.305,17.708 34.505,16.557C33.692,15.382 32.53,14.175 31.113,13.09C28.287,10.917 24.363,9.167 20,9.167ZM13.75,20C13.75,18.342 14.409,16.753 15.581,15.581C16.753,14.408 18.342,13.75 20,13.75C21.658,13.75 23.247,14.408 24.42,15.581C25.592,16.753 26.25,18.342 26.25,20C26.25,21.658 25.592,23.247 24.42,24.419C23.247,25.592 21.658,26.25 20,26.25C18.342,26.25 16.753,25.592 15.581,24.419C14.409,23.247 13.75,21.658 13.75,20Z" clip-rule="evenodd" fill-rule="evenodd" fill="#FFFFFF"/>
</svg>
