<svg width="38" height="36" viewBox="0 0 38 36" fill="none" xmlns="http://www.w3.org/2000/svg" xmlns:xlink="http://www.w3.org/1999/xlink">
<path d="M29.033,34.344L8.646,34.344C6.483,34.344 4.408,33.52 2.879,32.055C1.35,30.589 0.49,28.601 0.49,26.529L0.49,14.235C0.49,12.892 0.852,11.57 1.54,10.4C2.228,9.229 3.22,8.248 4.419,7.551L14.613,1.631C15.888,0.891 17.349,0.5 18.839,0.5C20.33,0.5 21.791,0.891 23.066,1.631L33.26,7.551C34.459,8.248 35.45,9.228 36.138,10.399C36.826,11.569 37.188,12.89 37.188,14.233L37.188,26.529C37.188,28.601 36.329,30.589 34.8,32.055C33.27,33.52 31.196,34.344 29.033,34.344Z" fill="#00CCFF"/>
<line x1="12.723" y1="25.527" x2="24.956" y2="25.527" stroke="#FFFFFF" stroke-width="1" stroke-miterlimit="3.999327" stroke-linecap="round" stroke-linejoin="round"/>
</svg>
