<svg width="38" height="34" viewBox="0 0 38 34" fill="none" xmlns="http://www.w3.org/2000/svg" xmlns:xlink="http://www.w3.org/1999/xlink">
<path d="M28.26,33.188L7.873,33.188C5.71,33.188 3.635,32.364 2.106,30.899C0.577,29.433 -0.282,27.445 -0.282,25.372L-0.282,13.079C-0.282,11.735 0.079,10.414 0.767,9.243C1.455,8.073 2.447,7.092 3.646,6.395L13.84,0.475C15.115,-0.265 16.576,-0.656 18.067,-0.656C19.557,-0.656 21.018,-0.265 22.293,0.475L32.487,6.395C33.686,7.091 34.677,8.072 35.365,9.243C36.054,10.413 36.415,11.734 36.416,13.077L36.416,25.372C36.416,27.445 35.556,29.433 34.027,30.899C32.498,32.364 30.423,33.188 28.26,33.188Z" fill="#00CCFF"/>
<line x1="11.95" y1="24.37" x2="24.183" y2="24.37" stroke="#FFFFFF" stroke-width="1" stroke-miterlimit="3.999327" stroke-linecap="round" stroke-linejoin="round"/>
</svg>
