<svg width="38" height="36" viewBox="0 0 38 36" fill="none" xmlns="http://www.w3.org/2000/svg" xmlns:xlink="http://www.w3.org/1999/xlink">
<path d="M1.866,14.751L17.22,14.751C19.078,14.765 20.875,14.092 22.267,12.861C23.659,11.631 24.547,9.929 24.762,8.084C24.969,6.012 24.282,3.949 22.873,2.415C21.475,0.88 19.496,0.003 17.42,0L13.276,0C12.61,0 11.994,0.355 11.661,0.932C11.328,1.51 11.328,2.221 11.661,2.798C11.994,3.375 12.61,3.731 13.276,3.731L17.42,3.731C18.47,3.732 19.468,4.186 20.16,4.976C20.852,5.766 21.17,6.816 21.033,7.857C20.895,8.75 20.438,9.563 19.746,10.145C19.055,10.726 18.175,11.037 17.272,11.019L1.865,11.019C1.199,11.019 0.583,11.374 0.25,11.952C-0.083,12.529 -0.083,13.24 0.25,13.817C0.583,14.394 1.199,14.75 1.865,14.75L1.866,14.751Z" fill="#FFFFFF"/>
<path d="M35.967,27.059C35.752,25.213 34.864,23.512 33.473,22.282C32.081,21.052 30.284,20.378 28.427,20.391L15.6,20.391C14.934,20.391 14.318,20.747 13.985,21.324C13.652,21.901 13.652,22.613 13.985,23.189C14.318,23.767 14.934,24.122 15.6,24.122L28.477,24.122C29.381,24.104 30.26,24.415 30.952,24.996C31.644,25.578 32.101,26.391 32.238,27.284C32.375,28.325 32.057,29.375 31.365,30.165C30.673,30.955 29.675,31.409 28.625,31.411L24.48,31.411C23.814,31.411 23.198,31.766 22.865,32.343C22.531,32.92 22.531,33.631 22.865,34.209C23.198,34.786 23.814,35.141 24.48,35.141L28.623,35.141C30.7,35.139 32.681,34.264 34.08,32.728C35.488,31.193 36.174,29.131 35.967,27.059L35.967,27.059Z" fill="#FFFFFF"/>
<path d="M11.49,22.259C11.49,21.764 11.293,21.289 10.943,20.939C10.594,20.589 10.119,20.392 9.624,20.391L1.866,20.391C1.199,20.391 0.583,20.747 0.25,21.324C-0.083,21.901 -0.083,22.613 0.25,23.19C0.583,23.767 1.199,24.122 1.866,24.122L9.624,24.122C10.119,24.122 10.593,23.925 10.942,23.576C11.292,23.227 11.489,22.753 11.49,22.259L11.49,22.259Z" fill="#FFFFFF"/>
<path d="M25.41,15.956C25.57,15.956 25.722,15.893 25.835,15.781L27.099,14.516L27.099,14.516C28.836,14.861 30.629,14.283 31.838,12.988C33.047,11.694 33.501,9.866 33.039,8.156C32.984,7.948 32.821,7.786 32.613,7.731C30.903,7.269 29.076,7.723 27.781,8.932C26.487,10.141 25.909,11.933 26.253,13.671L24.986,14.931C24.815,15.103 24.763,15.361 24.856,15.585C24.949,15.809 25.168,15.955 25.41,15.956L25.41,15.956Z" fill="#FFFFFF"/>
<path d="M12.463,26.649L11.198,25.384C10.963,25.157 10.589,25.16 10.357,25.392C10.126,25.623 10.123,25.997 10.35,26.233L11.614,27.497L11.614,27.497C11.288,29.17 11.812,30.896 13.012,32.106C14.26,33.341 17.049,34.39 18.4,33.006L18.4,33.006C18.861,31.297 18.407,29.47 17.199,28.176C15.991,26.881 14.2,26.303 12.463,26.646L12.463,26.649Z" fill="#FFFFFF"/>
</svg>
