<svg width="16" height="36" viewBox="0 0 16 36" fill="none" xmlns="http://www.w3.org/2000/svg" xmlns:xlink="http://www.w3.org/1999/xlink">
<path d="M8.057,26.329C7.555,25.892 7.145,24.99 7.145,24.325L7.145,1.209C7.145,0.544 6.601,0 5.936,0L4.385,0C3.72,0 3.176,0.544 3.176,1.209L3.176,24.324C3.176,24.99 2.749,25.871 2.228,26.285C2.228,26.285 0,28.049 0,29.717C0,32.293 2.266,34.381 5.062,34.381C7.857,34.381 10.123,32.292 10.123,29.717C10.123,28.129 8.057,26.328 8.057,26.328L8.057,26.329Z" fill="#FFFFFF"/>
<path d="M6.643,6.717C6.643,7.382 6.099,7.926 5.434,7.926L4.904,7.926C4.239,7.926 3.695,7.382 3.695,6.717L3.695,1.734C3.695,1.069 4.239,0.525 4.904,0.525L5.434,0.525C6.099,0.525 6.643,1.069 6.643,1.734L6.643,6.717Z" fill="#FFFFFF"/>
<path d="M13.184,21.203C13.184,22.345 12.259,23.27 11.116,23.27C9.974,23.27 9.049,22.345 9.049,21.203L11.089,17.481L13.184,21.203Z" fill="#FFFFFF"/>
<path d="M15.409,24.585C15.402,25.248 14.861,25.78 14.197,25.773C13.535,25.767 13.003,25.226 13.01,24.562L14.214,22.414L15.409,24.585Z" fill="#FFFFFF"/>
<path d="M14.974,19.282C14.97,19.677 14.647,19.994 14.252,19.99C13.857,19.986 13.539,19.663 13.544,19.268L14.262,17.988L14.974,19.282Z" fill="#FFFFFF"/>
<path d="M8.014,30.675C7.974,30.674 8.009,30.674 8.09,30.674C8.17,30.674 7.995,31.163 7.701,31.759L7.605,31.953C7.312,32.55 6.635,33.039 6.101,33.039L5.129,33.039L4.158,33.039C3.625,33.039 2.947,32.55 2.653,31.953L2.557,31.759C2.263,31.163 2.09,30.674 2.171,30.674C2.253,30.674 2.864,30.674 3.529,30.675L6.877,30.675C7.541,30.675 8.053,30.675 8.014,30.675L8.014,30.675Z" fill="#FFFFFF"/>
<path d="M4.689,30.151C3.919,30.107 3.478,29.858 3.084,29.11C2.689,28.362 2.737,28.074 3.135,27.199L3.159,27.202C4.087,27.368 4.349,27.497 4.739,28.239C5.134,28.986 5.089,29.491 4.689,30.151Z" fill="#FFFFFF"/>
<path d="M5.592,28.02C5.249,28 5.053,27.889 4.877,27.557C4.702,27.224 4.723,27.095 4.9,26.706L4.91,26.707C5.324,26.781 5.441,26.838 5.614,27.169C5.789,27.501 5.769,27.726 5.591,28.02Z" fill="#FFFFFF"/>
<path d="M6.036,30.151C5.685,29.721 5.603,29.365 5.809,28.792C6.016,28.22 6.192,28.106 6.85,27.892L6.859,27.907C7.222,28.481 7.28,28.682 7.076,29.249C6.87,29.822 6.58,30.042 6.036,30.15Z" fill="#FFFFFF"/>
</svg>
