<svg width="38" height="36" viewBox="0 0 38 36" fill="none" xmlns="http://www.w3.org/2000/svg" xmlns:xlink="http://www.w3.org/1999/xlink">
<path d="M28.26,35.49L7.872,35.49C5.71,35.49 3.635,34.642 2.106,33.134C0.576,31.625 -0.283,29.579 -0.283,27.446L-0.283,14.793C-0.283,13.41 0.079,12.05 0.767,10.845C1.455,9.64 2.447,8.631 3.646,7.914L13.84,1.821C15.114,1.059 16.576,0.656 18.066,0.656C19.556,0.656 21.018,1.059 22.293,1.821L32.486,7.914C33.685,8.63 34.677,9.64 35.365,10.844C36.053,12.049 36.415,13.408 36.415,14.791L36.415,27.446C36.415,29.579 35.556,31.625 34.027,33.134C32.497,34.642 30.423,35.49 28.26,35.49Z" fill="#CFCFCF"/>
<line x1="11.95" y1="26.444" x2="24.183" y2="26.444" stroke="#FFFFFF" stroke-width="1" stroke-miterlimit="3.999327" stroke-linecap="round" stroke-linejoin="round"/>
</svg>
