<svg width="276" height="182" viewBox="0 0 276 182" fill="none" xmlns="http://www.w3.org/2000/svg" xmlns:xlink="http://www.w3.org/1999/xlink">
<path d="M138,0C110.167,0 85.879,20.2 79.376,47.806C74.054,49.957 69.192,53.175 65.071,57.277C60.949,61.378 57.647,66.283 55.355,71.709C25.202,69.401 0,94.422 0,125.24C0,154.842 14.824,181.223 59.921,180.069L49.026,161.312C29.991,161.312 17.25,144.984 17.25,125.24C17.25,105.497 32.715,89.458 51.75,89.458C54.139,89.458 56.632,89.771 59.366,90.397L67.784,92.392L69.681,83.625C70.747,78.74 73.11,74.262 76.504,70.698C79.897,67.134 84.184,64.627 88.881,63.461L94.573,62.066L95.418,56.054C98.48,34.28 116.808,17.892 138,17.892C145.983,17.877 153.812,20.171 160.608,24.517C167.403,28.862 172.895,35.087 176.467,42.492L179.874,49.479L187.025,46.894C191.061,45.462 194.77,44.729 198.375,44.729C217.41,44.729 232.876,60.769 232.876,80.512C232.876,80.87 232.806,81.174 232.736,81.496C232.676,82.122 232.608,82.748 232.564,83.339L232.03,89.78L237.756,92.32C243.99,95.058 249.306,99.641 253.04,105.497C256.774,111.352 258.76,118.22 258.75,125.24C258.75,144.984 243.286,161.023 224.25,161.023L208.816,161.023L208.816,180.069L224.25,180.069C252.79,180.069 276,154.869 276,125.24C275.998,115.81 273.604,106.546 269.056,98.38C264.508,90.215 257.966,83.435 250.09,78.723C249.626,64.812 243.976,51.63 234.33,41.953C224.684,32.276 211.796,26.857 198.375,26.837C195.011,26.837 191.673,27.222 188.266,27.956C182.774,19.344 175.305,12.283 166.532,7.403C157.759,2.524 147.955,-0.02 138,0Z" fill="#00CCFF"/>
<path d="M58.108,104.029L58.108,123.112L85.707,123.112C90.914,123.112 94.907,127.253 94.907,132.654C94.907,138.055 90.914,142.196 85.707,142.196C84.094,142.206 82.507,141.77 81.111,140.931C79.716,140.092 78.561,138.882 77.768,137.425L61.852,147.081C64.301,151.389 67.787,154.964 71.969,157.453C76.151,159.942 80.885,161.26 85.707,161.279C100.84,161.279 113.306,148.35 113.306,132.654C113.267,129.394 112.681,126.165 111.576,123.112L159.304,123.112C169.58,123.112 177.703,131.538 177.703,142.196C177.703,152.854 169.58,161.279 159.304,161.279C155.494,161.28 151.778,160.054 148.668,157.771C145.559,155.487 143.209,152.259 141.944,148.531L124.594,154.867C127.128,162.318 131.826,168.77 138.043,173.336C144.259,177.902 151.687,180.357 159.304,180.363C179.543,180.363 196.102,163.188 196.102,142.196C196.102,121.204 179.543,104.029 159.304,104.029L58.108,104.029Z" transform="rotate(-359.991 127.105 142.196)" fill="#00CCFF"/>
</svg>
