<svg width="34" height="32" viewBox="0 0 34 32" fill="none" xmlns="http://www.w3.org/2000/svg" xmlns:xlink="http://www.w3.org/1999/xlink">
<path d="M0.787,15.331L-0.166,15.636L-0.166,15.636L0.787,15.331ZM6.95,1.477L7.256,2.429L7.257,2.429L6.95,1.477ZM16,2.997L15.399,3.796C15.759,4.067 16.255,4.064 16.612,3.788L16,2.997ZM25.033,1.477L25.34,0.525L25.339,0.525L25.033,1.477ZM31.212,15.331L30.259,15.026L30.258,15.031L31.212,15.331ZM16,30.997L15.522,31.876C15.821,32.038 16.182,32.038 16.481,31.874L16,30.997ZM1.739,15.026C0.066,9.804 2.069,4.1 7.256,2.429L6.643,0.525C0.107,2.631 -2.07,9.69 -0.166,15.636L1.739,15.026ZM7.257,2.429C10.029,1.534 13.094,2.062 15.399,3.796L16.601,2.198C13.779,0.075 10.037,-0.57 6.643,0.526L7.257,2.429ZM16.612,3.788C18.771,2.119 21.955,1.54 24.728,2.429L25.339,0.525C21.951,-0.562 18.079,0.126 15.388,2.206L16.612,3.788ZM24.727,2.429C29.916,4.101 31.929,9.806 30.259,15.026L32.164,15.635C34.067,9.688 31.874,2.63 25.34,0.525L24.727,2.429ZM30.258,15.031C28.958,19.163 25.352,22.924 21.931,25.707C20.239,27.083 18.63,28.19 17.444,28.953C16.852,29.334 16.367,29.628 16.031,29.826C15.864,29.925 15.733,29.999 15.646,30.049C15.603,30.074 15.57,30.092 15.548,30.104C15.538,30.11 15.53,30.114 15.525,30.117C15.522,30.119 15.521,30.119 15.52,30.12C15.519,30.12 15.519,30.12 15.519,30.121C15.519,30.121 15.519,30.121 15.519,30.121C15.519,30.121 15.519,30.12 16,30.997C16.481,31.874 16.481,31.874 16.481,31.874C16.481,31.874 16.482,31.873 16.482,31.873C16.483,31.873 16.484,31.872 16.485,31.872C16.487,31.871 16.489,31.869 16.493,31.867C16.5,31.863 16.51,31.858 16.523,31.851C16.549,31.836 16.586,31.815 16.634,31.788C16.73,31.733 16.87,31.653 17.047,31.548C17.403,31.339 17.91,31.031 18.526,30.635C19.758,29.843 21.43,28.693 23.193,27.258C26.682,24.42 30.682,20.348 32.166,15.631L30.258,15.031ZM16,30.997C16.478,30.119 16.478,30.119 16.478,30.119C16.478,30.119 16.478,30.119 16.478,30.119C16.478,30.119 16.478,30.119 16.477,30.118C16.476,30.118 16.475,30.117 16.472,30.116C16.467,30.113 16.459,30.109 16.449,30.103C16.428,30.091 16.395,30.073 16.352,30.049C16.265,30 16.136,29.926 15.97,29.829C15.637,29.633 15.155,29.343 14.567,28.966C13.388,28.212 11.788,27.115 10.102,25.745C6.696,22.978 3.085,19.215 1.739,15.025L-0.166,15.636C1.365,20.4 5.36,24.47 8.841,27.298C10.599,28.726 12.263,29.866 13.488,30.651C14.101,31.043 14.605,31.347 14.958,31.554C15.135,31.657 15.274,31.737 15.369,31.791C15.417,31.818 15.454,31.838 15.48,31.852C15.493,31.86 15.503,31.865 15.51,31.869C15.513,31.871 15.516,31.872 15.518,31.873C15.519,31.874 15.52,31.874 15.521,31.875C15.521,31.875 15.521,31.875 15.521,31.875C15.522,31.875 15.522,31.876 16,30.997Z" fill="#00CCFF"/>
<g opacity="0.4" style="isolation:isolate">
<path d="M22.974,6.215C22.449,6.045 21.885,6.333 21.715,6.859C21.545,7.384 21.834,7.948 22.359,8.118L22.974,6.215ZM24.865,11.284C24.91,11.835 25.392,12.245 25.943,12.2C26.493,12.155 26.903,11.673 26.858,11.122L24.865,11.284ZM22.359,8.118C23.758,8.57 24.746,9.819 24.865,11.284L26.858,11.122C26.674,8.851 25.142,6.916 22.974,6.215L22.359,8.118Z" fill="#00CCFF"/>
</g>
</svg>
