<svg width="210" height="166" viewBox="0 0 210 166" fill="none" xmlns="http://www.w3.org/2000/svg" xmlns:xlink="http://www.w3.org/1999/xlink">
<path d="M29.458,20.442L27.183,18.167C24.908,15.892 21.233,15.95 19.017,18.167L18.958,18.225C16.683,20.5 16.683,24.175 18.958,26.392L21.233,28.667C23.508,30.942 27.125,30.942 29.4,28.667L29.458,28.608C31.733,26.392 31.733,22.658 29.458,20.442Z" fill="#00CCFF"/>
<path d="M11.725,57.542L5.775,57.542C2.567,57.542 0,60.108 0,63.317L0,63.375C0,66.583 2.567,69.15 5.775,69.15L11.667,69.15C14.933,69.208 17.5,66.642 17.5,63.433L17.5,63.375C17.5,60.108 14.933,57.542 11.725,57.542Z" fill="#00CCFF"/>
<path d="M64.225,-0.5L64.167,-0.5C60.9,-0.5 58.333,2.067 58.333,5.275L58.333,10.875C58.333,14.083 60.9,16.65 64.108,16.65L64.167,16.65C67.433,16.708 70,14.142 70,10.933L70,5.275C70,2.067 67.433,-0.5 64.225,-0.5Z" fill="#00CCFF"/>
<path d="M109.375,18.225C107.1,15.95 103.425,15.95 101.15,18.167L98.875,20.442C96.6,22.717 96.6,26.392 98.875,28.608L98.933,28.667C101.208,30.942 104.883,30.942 107.1,28.667L109.375,26.392C111.65,24.117 111.65,20.5 109.375,18.225Z" fill="#00CCFF"/>
<path d="M64.167,28.375C44.858,28.375 29.167,44.067 29.167,63.375C29.167,75.891 35.76,86.887 45.657,93.075C50.393,79.355 63.421,69.5 78.75,69.5C79.353,69.5 79.953,69.515 80.549,69.545C83.076,60.577 88.136,52.671 94.909,46.649C88.969,35.768 77.42,28.375 64.167,28.375Z" fill="#00CCFF"/>
<path d="M18.958,108.525C21.233,110.8 24.908,110.8 27.183,108.525L29.458,106.25C31.733,103.975 31.675,100.3 29.458,98.083L29.4,98.025C27.125,95.75 23.45,95.75 21.175,98.025L18.9,100.3C16.683,102.633 16.683,106.25 18.958,108.525Z" fill="#00CCFF"/>
<path d="M61.25,165.75L175,165.75C194.33,165.75 210,150.08 210,130.75C210,114.334 198.698,100.557 183.45,96.777C183.648,95.004 183.75,93.201 183.75,91.375C183.75,64.796 162.204,43.25 135.625,43.25C113.58,43.25 94.997,58.073 89.299,78.295C88.703,78.265 88.103,78.25 87.5,78.25C68.17,78.25 52.5,93.92 52.5,113.25C52.5,113.747 52.51,114.241 52.531,114.733C42.319,118.328 35,128.059 35,139.5C35,153.997 46.753,165.75 61.25,165.75Z" fill="#00CCFF"/>
</svg>
