<svg width="634" height="424" viewBox="0 0 634 424" fill="none" xmlns="http://www.w3.org/2000/svg" xmlns:xlink="http://www.w3.org/1999/xlink">
<path d="M501.91,422.317L79.385,422.317C35.631,422.317 0.162,386.849 0.162,343.095C0.162,308.135 22.805,278.465 54.225,267.949C53.403,262.307 52.977,256.537 52.977,250.667C52.977,185.036 106.181,131.832 171.812,131.832C177.758,131.832 183.601,132.269 189.312,133.112C206.728,56.764 275.044,-0.207 356.668,-0.207C447.898,-0.207 522.506,70.966 527.994,160.816C588.424,172.924 633.95,226.285 633.95,290.279C633.95,363.201 574.834,422.317 501.91,422.317Z" transform="rotate(-0.784 317.055 211.055)" fill="#00CCFF"/>
</svg>
