<svg width="34" height="34" viewBox="0 0 34 34" fill="none" xmlns="http://www.w3.org/2000/svg" xmlns:xlink="http://www.w3.org/1999/xlink">
<g opacity="0.4" style="isolation:isolate">
<path d="M19.46,8.568C19.46,9.12 19.908,9.568 20.46,9.568C21.012,9.568 21.46,9.12 21.46,8.568L19.46,8.568ZM21.46,24.009C21.46,23.457 21.012,23.009 20.46,23.009C19.908,23.009 19.46,23.457 19.46,24.009L21.46,24.009ZM21.46,8.568L21.46,7.013L19.46,7.013L19.46,8.568L21.46,8.568ZM21.46,7.013C21.46,3.069 18.262,-0.129 14.318,-0.129L14.318,1.871C17.158,1.871 19.46,4.173 19.46,7.013L21.46,7.013ZM14.318,-0.129L6.193,-0.129L6.193,1.871L14.318,1.871L14.318,-0.129ZM6.193,-0.129C2.251,-0.129 -0.947,3.069 -0.947,7.013L1.053,7.013C1.053,4.173 3.356,1.871 6.193,1.871L6.193,-0.129ZM-0.947,7.013L-0.947,25.563L1.053,25.563L1.053,7.013L-0.947,7.013ZM-0.947,25.563C-0.947,29.506 2.251,32.704 6.193,32.704L6.193,30.704C3.356,30.704 1.053,28.402 1.053,25.563L-0.947,25.563ZM6.193,32.704L14.335,32.704L14.335,30.704L6.193,30.704L6.193,32.704ZM14.335,32.704C18.269,32.704 21.46,29.515 21.46,25.581L19.46,25.581C19.46,28.41 17.165,30.704 14.335,30.704L14.335,32.704ZM21.46,25.581L21.46,24.009L19.46,24.009L19.46,25.581L21.46,25.581Z" fill="#00CCFF"/>
</g>
<path d="M31.783,17.288C32.335,17.288 32.783,16.84 32.783,16.288C32.783,15.735 32.335,15.288 31.783,15.288L31.783,17.288ZM11.714,15.288C11.162,15.288 10.714,15.735 10.714,16.288C10.714,16.84 11.162,17.288 11.714,17.288L11.714,15.288ZM31.783,15.288L11.714,15.288L11.714,17.288L31.783,17.288L31.783,15.288Z" fill="#00CCFF"/>
<path d="M27.608,10.72C27.216,10.331 26.583,10.332 26.193,10.723C25.804,11.115 25.805,11.748 26.197,12.138L27.608,10.72ZM31.782,16.287L32.488,16.996C32.676,16.808 32.782,16.553 32.782,16.287C32.782,16.021 32.676,15.766 32.488,15.579L31.782,16.287ZM26.196,20.439C25.805,20.829 25.804,21.462 26.194,21.853C26.583,22.244 27.216,22.246 27.608,21.856L26.196,20.439ZM26.197,12.138L31.077,16.996L32.488,15.579L27.608,10.72L26.197,12.138ZM31.076,15.579L26.196,20.439L27.608,21.856L32.488,16.996L31.076,15.579Z" fill="#00CCFF"/>
</svg>
