<svg width="14" height="24" viewBox="0 0 14 24" fill="none" xmlns="http://www.w3.org/2000/svg" xmlns:xlink="http://www.w3.org/1999/xlink">
<path d="M2.133,23.68C2.717,23.68 3.187,23.477 3.593,23.07L13.152,13.752C13.698,13.206 13.939,12.673 13.952,12C13.952,11.34 13.698,10.781 13.152,10.248L3.605,0.917C3.187,0.523 2.704,0.32 2.133,0.32C0.965,0.32 0,1.26 0,2.428C0,3.012 0.254,3.545 0.686,3.989L8.976,12.013L0.686,20.011C0.241,20.455 0,20.988 0,21.572C0,22.728 0.965,23.68 2.133,23.68Z" fill="#ABABAB"/>
</svg>
