<svg width="14" height="24" viewBox="0 0 14 24" fill="none" xmlns="http://www.w3.org/2000/svg" xmlns:xlink="http://www.w3.org/1999/xlink">
<path d="M1.566,23.932C2.15,23.932 2.62,23.728 3.026,23.322L12.586,14.004C13.132,13.458 13.373,12.925 13.386,12.252C13.386,11.592 13.132,11.033 12.586,10.5L3.039,1.169C2.62,0.775 2.138,0.572 1.566,0.572C0.398,0.572 -0.566,1.512 -0.566,2.68C-0.566,3.264 -0.313,3.797 0.119,4.241L8.409,12.265L0.119,20.263C-0.325,20.707 -0.566,21.24 -0.566,21.824C-0.566,22.979 0.398,23.932 1.566,23.932Z" fill="#ABABAB"/>
</svg>
