<svg width="150" height="156" viewBox="0 0 150 156" fill="none" xmlns="http://www.w3.org/2000/svg" xmlns:xlink="http://www.w3.org/1999/xlink">
<g opacity="0.15" style="isolation:isolate">
<path d="M148.629,77.419C148.629,119.86 115.197,154.266 73.957,154.266C32.717,154.266 -0.715,119.86 -0.715,77.419C-0.715,34.977 32.717,0.571 73.957,0.571C115.197,0.571 148.629,34.977 148.629,77.419Z" fill="#0601B4"/>
</g>
<path d="M73.946,88.846C57.369,88.846 43.21,91.535 43.21,102.294C43.21,113.057 57.281,115.841 73.946,115.841C90.522,115.841 104.682,113.156 104.682,102.393C104.682,91.63 90.615,88.846 73.946,88.846Z" fill="#0601B4"/>
<g opacity="0.4" style="isolation:isolate">
<path d="M73.946,78.599C85.238,78.599 94.285,69.284 94.285,57.667C94.285,46.05 85.238,36.735 73.946,36.735C62.658,36.735 53.606,46.05 53.606,57.667C53.606,69.284 62.658,78.599 73.946,78.599Z" fill="#0601B4"/>
</g>
</svg>
