<svg width="28" height="34" viewBox="0 0 28 34" fill="none" xmlns="http://www.w3.org/2000/svg" xmlns:xlink="http://www.w3.org/1999/xlink">
<path d="M13.408,20.829C10.164,20.829 7.041,21.071 4.698,21.856C3.521,22.251 2.467,22.806 1.698,23.604C0.906,24.427 0.458,25.467 0.458,26.707L2.458,26.707C2.458,25.995 2.698,25.45 3.139,24.992C3.603,24.51 4.328,24.09 5.334,23.752C7.354,23.075 10.206,22.829 13.408,22.829L13.408,20.829ZM0.458,26.707C0.458,27.945 0.902,28.985 1.69,29.811C2.455,30.613 3.506,31.174 4.681,31.574C7.021,32.369 10.145,32.62 13.408,32.62L13.408,30.62C10.191,30.62 7.34,30.365 5.324,29.68C4.322,29.339 3.6,28.916 3.137,28.431C2.697,27.97 2.458,27.421 2.458,26.707L0.458,26.707ZM13.408,32.62C16.653,32.62 19.776,32.378 22.118,31.592C23.295,31.197 24.349,30.642 25.117,29.844C25.91,29.021 26.358,27.981 26.358,26.742L24.358,26.742C24.358,27.453 24.118,27.999 23.677,28.456C23.212,28.938 22.487,29.359 21.482,29.696C19.462,30.373 16.61,30.62 13.408,30.62L13.408,32.62ZM26.358,26.742C26.358,25.505 25.914,24.464 25.125,23.638C24.36,22.836 23.31,22.275 22.135,21.876C19.796,21.08 16.672,20.829 13.408,20.829L13.408,22.829C16.626,22.829 19.476,23.084 21.491,23.769C22.494,24.11 23.216,24.533 23.678,25.019C24.118,25.479 24.358,26.028 24.358,26.742L26.358,26.742Z" fill="#00CCFF"/>
<g opacity="0.4" style="isolation:isolate">
<path d="M5.748,8.601L6.748,8.605L6.748,8.601L5.748,8.601ZM13.354,16.262L13.351,17.262L13.354,17.262L13.354,16.262ZM13.408,17.262C18.191,17.262 22.067,13.384 22.067,8.601L20.067,8.601C20.067,12.28 17.086,15.262 13.408,15.262L13.408,17.262ZM22.067,8.601C22.067,3.819 18.191,-0.057 13.408,-0.057L13.408,1.943C17.086,1.943 20.067,4.924 20.067,8.601L22.067,8.601ZM13.408,-0.057C8.626,-0.057 4.748,3.819 4.748,8.601L6.748,8.601C6.748,4.924 9.73,1.943 13.408,1.943L13.408,-0.057ZM4.748,8.598C4.732,13.366 8.584,17.246 13.351,17.262L13.358,15.262C9.696,15.249 6.736,12.269 6.748,8.605L4.748,8.598ZM13.354,17.262L13.408,17.262L13.408,15.262L13.354,15.262L13.354,17.262Z" fill="#00CCFF"/>
</g>
</svg>
