<svg width="28" height="34" viewBox="0 0 28 34" fill="none" xmlns="http://www.w3.org/2000/svg" xmlns:xlink="http://www.w3.org/1999/xlink">
<path d="M13.408,20.829C10.164,20.829 7.04,21.071 4.697,21.856C3.521,22.251 2.467,22.806 1.698,23.604C0.905,24.427 0.457,25.467 0.457,26.707L2.457,26.707C2.457,25.995 2.697,25.45 3.138,24.992C3.603,24.509 4.328,24.089 5.333,23.752C7.354,23.075 10.206,22.829 13.408,22.829L13.408,20.829ZM0.457,26.707C0.457,27.944 0.901,28.985 1.689,29.811C2.455,30.613 3.505,31.174 4.68,31.574C7.02,32.369 10.145,32.62 13.408,32.62L13.408,30.62C10.19,30.62 7.339,30.365 5.324,29.68C4.322,29.339 3.599,28.916 3.136,28.431C2.697,27.97 2.457,27.421 2.457,26.707L0.457,26.707ZM13.408,32.62C16.652,32.62 19.775,32.378 22.118,31.592C23.294,31.197 24.348,30.642 25.117,29.844C25.909,29.021 26.357,27.981 26.357,26.742L24.357,26.742C24.357,27.453 24.117,27.998 23.676,28.456C23.212,28.938 22.487,29.358 21.482,29.696C19.461,30.373 16.61,30.62 13.408,30.62L13.408,32.62ZM26.357,26.742C26.357,25.504 25.913,24.464 25.125,23.638C24.36,22.836 23.31,22.275 22.135,21.876C19.795,21.08 16.671,20.829 13.408,20.829L13.408,22.829C16.625,22.829 19.476,23.084 21.491,23.769C22.493,24.11 23.215,24.533 23.678,25.018C24.118,25.479 24.357,26.028 24.357,26.742L26.357,26.742Z" fill="#00CCFF"/>
<g opacity="0.4" style="isolation:isolate">
<path d="M5.748,8.601L6.748,8.605L6.748,8.601L5.748,8.601ZM13.354,16.262L13.351,17.262L13.354,17.262L13.354,16.262ZM13.408,17.262C18.191,17.262 22.067,13.384 22.067,8.601L20.067,8.601C20.067,12.28 17.086,15.262 13.408,15.262L13.408,17.262ZM22.067,8.601C22.067,3.819 18.19,-0.057 13.408,-0.057L13.408,1.943C17.086,1.943 20.067,4.924 20.067,8.601L22.067,8.601ZM13.408,-0.057C8.626,-0.057 4.748,3.819 4.748,8.601L6.748,8.601C6.748,4.924 9.73,1.943 13.408,1.943L13.408,-0.057ZM4.748,8.598C4.731,13.366 8.584,17.246 13.351,17.262L13.357,15.262C9.696,15.249 6.735,12.269 6.748,8.605L4.748,8.598ZM13.354,17.262L13.408,17.262L13.408,15.262L13.354,15.262L13.354,17.262Z" fill="#00CCFF"/>
</g>
</svg>
