<svg width="28" height="34" viewBox="0 0 28 34" fill="none" xmlns="http://www.w3.org/2000/svg" xmlns:xlink="http://www.w3.org/1999/xlink">
<path d="M24.875,4.792L24.543,5.735L24.544,5.735L24.875,4.792ZM22.918,26.293L22.163,25.638L22.163,25.638L22.918,26.293ZM19.243,29.123L19.719,30.003L19.719,30.003L19.243,29.123ZM13.313,32.327L12.838,33.207C13.135,33.367 13.492,33.367 13.789,33.207L13.313,32.327ZM7.373,29.122L6.898,30.002L6.898,30.002L7.373,29.122ZM3.693,26.292L4.449,25.637L4.448,25.636L3.693,26.292ZM1.732,4.792L2.062,5.735L2.063,5.735L1.732,4.792ZM12.702,0.937L12.371,-0.007L12.37,-0.007L12.702,0.937ZM13.905,0.937L13.573,1.88L13.573,1.88L13.905,0.937ZM24.544,5.735C24.871,5.85 25.09,6.158 25.09,6.505L27.09,6.505C27.09,5.309 26.335,4.243 25.205,3.848L24.544,5.735ZM25.09,6.505L25.09,17.793L27.09,17.793L27.09,6.505L25.09,6.505ZM25.09,17.793C25.09,20.705 24.032,23.485 22.163,25.638L23.674,26.949C25.855,24.435 27.09,21.191 27.09,17.793L25.09,17.793ZM22.163,25.638C21.248,26.694 20.068,27.54 18.768,28.244L19.719,30.003C21.155,29.226 22.552,28.243 23.674,26.948L22.163,25.638ZM18.768,28.244L12.838,31.447L13.789,33.207L19.719,30.003L18.768,28.244ZM13.788,31.447L7.848,28.242L6.898,30.002L12.838,33.207L13.788,31.447ZM7.849,28.242C6.546,27.538 5.365,26.694 4.449,25.637L2.938,26.947C4.061,28.243 5.461,29.225 6.898,30.002L7.849,28.242ZM4.448,25.636C2.578,23.483 1.517,20.702 1.517,17.787L-0.483,17.787C-0.483,21.188 0.755,24.434 2.938,26.947L4.448,25.636ZM1.517,17.787L1.517,6.505L-0.483,6.505L-0.483,17.787L1.517,17.787ZM1.517,6.505C1.517,6.158 1.735,5.85 2.062,5.735L1.401,3.848C0.271,4.243 -0.483,5.309 -0.483,6.505L1.517,6.505ZM2.063,5.735L13.033,1.88L12.37,-0.007L1.4,3.848L2.063,5.735ZM13.032,1.88C13.209,1.819 13.4,1.819 13.573,1.88L14.237,-0.007C13.633,-0.219 12.975,-0.219 12.371,-0.007L13.032,1.88ZM13.573,1.88L24.543,5.735L25.206,3.848L14.236,-0.007L13.573,1.88Z" fill="#00CCFF"/>
<g opacity="0.4" style="isolation:isolate">
<path d="M9.678,15.408C9.288,15.017 8.654,15.017 8.264,15.408C7.873,15.798 7.873,16.431 8.263,16.822L9.678,15.408ZM12.124,19.27L11.417,19.977C11.604,20.164 11.859,20.27 12.124,20.27C12.389,20.27 12.644,20.165 12.831,19.977L12.124,19.27ZM19.328,13.48C19.718,13.09 19.718,12.457 19.328,12.066C18.937,11.676 18.304,11.676 17.914,12.066L19.328,13.48ZM8.263,16.822L11.417,19.977L12.831,18.563L9.678,15.408L8.263,16.822ZM12.831,19.977L19.328,13.48L17.914,12.066L11.417,18.563L12.831,19.977Z" fill="#00CCFF"/>
</g>
</svg>
