<svg width="28" height="34" viewBox="0 0 28 34" fill="none" xmlns="http://www.w3.org/2000/svg" xmlns:xlink="http://www.w3.org/1999/xlink">
<path d="M24.875,4.792L24.544,5.735L24.545,5.736L24.875,4.792ZM22.919,26.293L22.163,25.638L22.163,25.638L22.919,26.293ZM19.244,29.123L19.719,30.003L19.719,30.003L19.244,29.123ZM13.314,32.327L12.839,33.207C13.135,33.367 13.493,33.367 13.789,33.207L13.314,32.327ZM7.374,29.122L6.899,30.002L6.899,30.002L7.374,29.122ZM3.694,26.292L4.449,25.637L4.449,25.636L3.694,26.292ZM1.732,4.792L2.063,5.736L2.064,5.735L1.732,4.792ZM12.702,0.937L12.371,-0.007L12.371,-0.007L12.702,0.937ZM13.905,0.937L13.573,1.88L13.574,1.88L13.905,0.937ZM24.545,5.736C24.872,5.85 25.09,6.158 25.09,6.505L27.09,6.505C27.09,5.309 26.336,4.243 25.206,3.848L24.545,5.736ZM25.09,6.505L25.09,17.793L27.09,17.793L27.09,6.505L25.09,6.505ZM25.09,17.793C25.09,20.705 24.032,23.485 22.163,25.638L23.674,26.949C25.855,24.435 27.09,21.191 27.09,17.793L25.09,17.793ZM22.163,25.638C21.248,26.694 20.069,27.54 18.768,28.244L19.719,30.003C21.155,29.226 22.553,28.243 23.674,26.948L22.163,25.638ZM18.768,28.244L12.838,31.447L13.789,33.207L19.719,30.003L18.768,28.244ZM13.789,31.447L7.849,28.242L6.899,30.002L12.839,33.207L13.789,31.447ZM7.849,28.242C6.546,27.538 5.366,26.694 4.449,25.637L2.938,26.947C4.062,28.243 5.461,29.225 6.899,30.002L7.849,28.242ZM4.449,25.636C2.578,23.483 1.517,20.702 1.517,17.787L-0.483,17.787C-0.483,21.188 0.756,24.434 2.939,26.947L4.449,25.636ZM1.517,17.787L1.517,6.505L-0.483,6.505L-0.483,17.787L1.517,17.787ZM1.517,6.505C1.517,6.158 1.736,5.85 2.063,5.736L1.402,3.848C0.272,4.243 -0.483,5.309 -0.483,6.505L1.517,6.505ZM2.064,5.735L13.034,1.88L12.371,-0.007L1.401,3.848L2.064,5.735ZM13.033,1.88C13.209,1.819 13.4,1.819 13.573,1.88L14.237,-0.007C13.634,-0.219 12.975,-0.219 12.371,-0.007L13.033,1.88ZM13.574,1.88L24.544,5.735L25.207,3.848L14.237,-0.007L13.574,1.88Z" fill="#00CCFF"/>
<g opacity="0.4" style="isolation:isolate">
<path d="M9.678,15.408C9.288,15.017 8.655,15.017 8.264,15.408C7.874,15.798 7.873,16.431 8.264,16.822L9.678,15.408ZM12.125,19.27L11.417,19.977C11.605,20.165 11.859,20.27 12.124,20.27C12.39,20.27 12.644,20.165 12.832,19.977L12.125,19.27ZM19.328,13.48C19.719,13.09 19.719,12.457 19.328,12.066C18.938,11.676 18.305,11.676 17.914,12.066L19.328,13.48ZM8.264,16.822L11.417,19.977L12.832,18.563L9.678,15.408L8.264,16.822ZM12.832,19.977L19.328,13.48L17.914,12.066L11.417,18.563L12.832,19.977Z" fill="#00CCFF"/>
</g>
</svg>
