<svg width="78" height="62" viewBox="0 0 78 62" fill="none" xmlns="http://www.w3.org/2000/svg" xmlns:xlink="http://www.w3.org/1999/xlink">
<path d="M6.667,23.667L3.721,26.612L0.775,23.667L3.721,20.721L6.667,23.667ZM77.5,57C77.5,58.105 77.061,59.165 76.28,59.946C75.498,60.728 74.438,61.167 73.333,61.167C72.228,61.167 71.168,60.728 70.387,59.946C69.606,59.165 69.167,58.105 69.167,57L77.5,57ZM24.554,47.446L3.721,26.612L9.613,20.721L30.446,41.554L24.554,47.446ZM3.721,20.721L24.554,-0.113L30.446,5.779L9.613,26.612L3.721,20.721ZM6.667,19.5L48.333,19.5L48.333,27.833L6.667,27.833L6.667,19.5ZM77.5,48.667L77.5,57L69.167,57L69.167,48.667L77.5,48.667ZM48.333,19.5C56.069,19.5 63.487,22.573 68.957,28.043C74.427,33.512 77.5,40.931 77.5,48.667L69.167,48.667C69.167,43.141 66.972,37.842 63.065,33.935C59.158,30.028 53.859,27.833 48.333,27.833L48.333,19.5Z" fill="#00CCFF"/>
</svg>
