<svg width="168" height="164" viewBox="0 0 168 164" fill="none" xmlns="http://www.w3.org/2000/svg" xmlns:xlink="http://www.w3.org/1999/xlink">
<path d="M168,82C168,71.232 165.827,60.569 161.606,50.62C157.384,40.671 151.197,31.632 143.397,24.017C135.597,16.403 126.337,10.363 116.145,6.242C105.954,2.121 95.031,0 84,0C72.969,0 62.046,2.121 51.855,6.242C41.663,10.363 32.403,16.403 24.603,24.017C16.803,31.632 10.616,40.671 6.394,50.62C2.173,60.569 0,71.232 0,82C0,103.748 8.85,124.605 24.603,139.983C40.356,155.361 61.722,164 84,164C106.278,164 127.644,155.361 143.397,139.983C159.15,124.605 168,103.748 168,82ZM14,82C14,63.877 21.375,46.496 34.503,33.681C47.63,20.866 65.435,13.667 84,13.667C102.565,13.667 120.37,20.866 133.497,33.681C146.625,46.496 154,63.877 154,82C154,100.123 146.625,117.504 133.497,130.319C120.37,143.134 102.565,150.333 84,150.333C65.435,150.333 47.63,143.134 34.503,130.319C21.375,117.504 14,100.123 14,82ZM70,64.917C70,66.263 69.728,67.596 69.201,68.839C68.673,70.083 67.9,71.213 66.925,72.165C65.95,73.116 64.792,73.871 63.518,74.386C62.244,74.902 60.879,75.167 59.5,75.167C58.121,75.167 56.756,74.902 55.482,74.386C54.208,73.871 53.05,73.116 52.075,72.165C51.1,71.213 50.327,70.083 49.799,68.839C49.272,67.596 49,66.263 49,64.917C49,62.198 50.106,59.591 52.075,57.669C54.045,55.747 56.715,54.667 59.5,54.667C62.285,54.667 64.955,55.747 66.925,57.669C68.894,59.591 70,62.198 70,64.917L70,64.917ZM119,64.917C119,67.635 117.894,70.242 115.925,72.165C113.955,74.087 111.285,75.167 108.5,75.167C105.715,75.167 103.045,74.087 101.075,72.165C99.106,70.242 98,67.635 98,64.917C98,62.198 99.106,59.591 101.075,57.669C103.045,55.747 105.715,54.667 108.5,54.667C111.285,54.667 113.955,55.747 115.925,57.669C117.894,59.591 119,62.198 119,64.917ZM57.848,120.567C70.798,105.589 97.188,105.589 110.152,120.567C110.73,121.294 111.453,121.899 112.277,122.346C113.101,122.793 114.009,123.073 114.946,123.169C115.884,123.266 116.831,123.176 117.732,122.906C118.634,122.636 119.469,122.191 120.19,121.598C120.911,121.005 121.501,120.276 121.927,119.455C122.352,118.634 122.602,117.737 122.664,116.819C122.725,115.901 122.596,114.98 122.284,114.112C121.972,113.243 121.484,112.446 120.848,111.766C102.298,90.309 65.688,90.309 47.152,111.766C46.516,112.446 46.028,113.243 45.716,114.112C45.404,114.98 45.275,115.901 45.336,116.819C45.398,117.737 45.648,118.634 46.073,119.455C46.499,120.276 47.089,121.005 47.81,121.598C48.531,122.191 49.366,122.636 50.268,122.906C51.169,123.176 52.116,123.266 53.054,123.169C53.991,123.073 54.899,122.793 55.723,122.346C56.547,121.899 57.27,121.294 57.848,120.567L57.848,120.567Z" fill="#00CCFF"/>
</svg>
