<svg width="38" height="36" viewBox="0 0 38 36" fill="none" xmlns="http://www.w3.org/2000/svg" xmlns:xlink="http://www.w3.org/1999/xlink">
<path d="M0,34.25L7.5,34.25L29.62,13.052L22.12,5.864L0,27.063L0,34.25ZM4,28.653L22.12,11.288L23.96,13.052L5.84,30.417L4,30.417L4,28.653ZM30.74,0.306C30.555,0.128 30.335,-0.013 30.093,-0.109C29.851,-0.205 29.592,-0.255 29.33,-0.255C29.068,-0.255 28.809,-0.205 28.567,-0.109C28.325,-0.013 28.105,0.128 27.92,0.306L24.26,3.813L31.76,11.001L35.42,7.493C35.605,7.316 35.752,7.105 35.853,6.874C35.953,6.642 36.005,6.393 36.005,6.142C36.005,5.891 35.953,5.643 35.853,5.411C35.752,5.179 35.605,4.968 35.42,4.791L30.74,0.306L30.74,0.306Z" fill="#FFFFFF"/>
</svg>
