<svg width="36" height="36" viewBox="0 0 36 36" fill="none" xmlns="http://www.w3.org/2000/svg" xmlns:xlink="http://www.w3.org/1999/xlink">
<path d="M5.151,5.443C11.376,-0.523 21.469,-0.523 27.694,5.443C33.568,11.072 33.899,20.002 28.687,26.003L35.367,32.405C35.942,32.956 35.942,33.849 35.367,34.399C34.793,34.95 33.861,34.95 33.286,34.399L26.606,27.998C20.344,32.992 11.026,32.675 5.151,27.046C-1.074,21.08 -1.074,11.408 5.151,5.443L5.151,5.443ZM9.597,11.114C10.172,10.563 10.172,9.67 9.597,9.12C9.022,8.569 8.091,8.569 7.516,9.12C3.41,13.055 3.41,19.435 7.516,23.37C8.091,23.92 9.022,23.92 9.597,23.37C10.172,22.819 10.172,21.926 9.597,21.375C6.64,18.542 6.64,13.948 9.597,11.114L9.597,11.114Z" clip-rule="evenodd" fill-rule="evenodd" fill="#C4C4C4" fill-opacity="0.8"/>
</svg>
