<svg width="28" height="36" viewBox="0 0 28 36" fill="none" xmlns="http://www.w3.org/2000/svg" xmlns:xlink="http://www.w3.org/1999/xlink">
<path d="M0.474,33.754L0.474,5.199C0.474,4.077 0.939,3.001 1.767,2.208C2.595,1.414 3.718,0.969 4.889,0.969L22.546,0.969C23.717,0.969 24.84,1.414 25.668,2.208C26.495,3.001 26.96,4.077 26.96,5.199L26.96,33.754C26.961,33.938 26.911,34.118 26.816,34.278C26.721,34.438 26.585,34.571 26.42,34.665C26.255,34.758 26.068,34.809 25.876,34.812C25.684,34.816 25.495,34.771 25.327,34.683L13.717,28.612L2.107,34.683C1.939,34.771 1.75,34.816 1.559,34.812C1.367,34.809 1.179,34.758 1.015,34.665C0.85,34.571 0.713,34.438 0.619,34.278C0.524,34.118 0.474,33.938 0.474,33.754ZM9.303,13.66C9.01,13.66 8.729,13.771 8.523,13.97C8.316,14.168 8.199,14.437 8.199,14.717C8.199,14.998 8.316,15.267 8.523,15.465C8.729,15.664 9.01,15.775 9.303,15.775L18.132,15.775C18.424,15.775 18.705,15.664 18.912,15.465C19.119,15.267 19.235,14.998 19.235,14.717C19.235,14.437 19.119,14.168 18.912,13.97C18.705,13.771 18.424,13.66 18.132,13.66L9.303,13.66Z" clip-rule="evenodd" fill-rule="evenodd" fill="#C4C4C4" fill-opacity="0.8"/>
</svg>
