<svg width="62" height="50" viewBox="0 0 62 50" fill="none" xmlns="http://www.w3.org/2000/svg" xmlns:xlink="http://www.w3.org/1999/xlink">
<path d="M5.333,19.333L2.977,21.69L0.62,19.333L2.977,16.977L5.333,19.333ZM62,46C62,46.884 61.649,47.732 61.024,48.357C60.399,48.982 59.551,49.333 58.667,49.333C57.783,49.333 56.935,48.982 56.31,48.357C55.685,47.732 55.333,46.884 55.333,46L62,46ZM19.643,38.357L2.977,21.69L7.69,16.977L24.357,33.643L19.643,38.357ZM2.977,16.977L19.643,0.31L24.357,5.023L7.69,21.69L2.977,16.977ZM5.333,16L38.667,16L38.667,22.667L5.333,22.667L5.333,16ZM62,39.333L62,46L55.333,46L55.333,39.333L62,39.333ZM38.667,16C44.855,16 50.79,18.458 55.166,22.834C59.542,27.21 62,33.145 62,39.333L55.333,39.333C55.333,34.913 53.577,30.674 50.452,27.548C47.326,24.423 43.087,22.667 38.667,22.667L38.667,16Z" fill="#00CCFF"/>
</svg>
