<svg width="68" height="80" viewBox="0 0 68 80" fill="none" xmlns="http://www.w3.org/2000/svg" xmlns:xlink="http://www.w3.org/1999/xlink">
<path d="M65.67,12.954L35,0.239C34.232,-0.08 33.368,-0.08 32.6,0.239L1.93,12.954C0.761,13.438 0,14.577 0,15.84L0,31.297C0,52.58 12.883,71.725 32.617,79.768C33.375,80.077 34.225,80.077 34.983,79.768C54.717,71.726 67.6,52.581 67.6,31.297L67.6,15.84C67.6,14.577 66.839,13.438 65.67,12.954ZM31.984,44.349L47.797,28.56C49.233,27.125 51.563,27.125 52.999,28.56C54.436,29.994 54.436,32.32 52.999,33.755L34.585,52.141C33.148,53.576 30.819,53.576 29.383,52.141L19.101,41.875C17.664,40.44 17.664,38.114 19.101,36.68C20.538,35.245 22.867,35.245 24.304,36.68L31.984,44.349Z" clip-rule="evenodd" fill-rule="evenodd" fill="#FFFFFF"/>
</svg>
