<svg width="30" height="36" viewBox="0 0 30 36" fill="none" xmlns="http://www.w3.org/2000/svg" xmlns:xlink="http://www.w3.org/1999/xlink">
<path d="M24.589,18.336C25.698,18.336 26.761,18.758 27.546,19.51C28.33,20.261 28.771,21.281 28.771,22.344L28.771,23.68C28.771,28.946 23.585,34.367 14.83,34.367C6.076,34.367 0.89,28.946 0.89,23.68L0.89,22.344C0.89,21.281 1.331,20.261 2.115,19.51C2.899,18.758 3.963,18.336 5.072,18.336L24.589,18.336ZM14.83,0.969C16.864,0.969 18.814,1.743 20.252,3.121C21.69,4.499 22.498,6.368 22.498,8.316C22.498,10.265 21.69,12.134 20.252,13.512C18.814,14.89 16.864,15.664 14.83,15.664C12.797,15.664 10.847,14.89 9.409,13.512C7.971,12.134 7.163,10.265 7.163,8.316C7.163,6.368 7.971,4.499 9.409,3.121C10.847,1.743 12.797,0.969 14.83,0.969L14.83,0.969Z" fill="#C4C4C4" fill-opacity="0.8"/>
<line x1="10.184" y1="24.906" x2="19.477" y2="24.906" stroke="#FFFFFF" stroke-width="1" stroke-miterlimit="3.999327" stroke-linecap="round" stroke-linejoin="round"/>
</svg>
