<svg width="30" height="34" viewBox="0 0 30 34" fill="none" xmlns="http://www.w3.org/2000/svg" xmlns:xlink="http://www.w3.org/1999/xlink">
<path d="M5.815,10.02C7.848,9.197 8.936,6.938 8.11,4.897C7.287,2.865 1.759,0 1.759,0C1.759,0 -0.225,5.906 0.598,7.938C1.424,9.979 3.777,10.845 5.815,10.02L5.815,10.02Z" fill="#FFFFFF"/>
<path d="M14.329,22.058C14.329,22.058 12.289,27.807 13.111,29.839C13.937,31.878 16.284,32.748 18.323,31.923C20.362,31.098 21.443,28.839 20.617,26.801C19.794,24.768 14.329,22.057 14.329,22.057L14.329,22.058Z" fill="#FFFFFF"/>
<path d="M1.56,19.759C1.56,19.759 -0.679,25.952 0.208,28.141C1.096,30.336 3.675,31.295 5.87,30.406C8.059,29.519 9.085,27.102 8.197,24.907C7.31,22.718 1.56,19.759 1.56,19.759L1.56,19.759Z" fill="#FFFFFF"/>
<path d="M14.281,17.883C15.531,17.377 16.028,15.904 15.584,14.808C15.076,13.552 11.873,11.935 11.873,11.935C11.873,11.935 10.696,15.325 11.205,16.582C11.648,17.677 13.028,18.391 14.281,17.883L14.281,17.883Z" fill="#FFFFFF"/>
<path d="M26.55,17.363C26.041,16.107 22.839,14.49 22.839,14.49C22.839,14.49 21.662,17.88 22.17,19.136C22.613,20.232 23.993,20.945 25.247,20.438C26.497,19.932 26.994,18.458 26.55,17.362L26.55,17.363Z" fill="#FFFFFF"/>
<path d="M24.105,5.273C23.282,3.24 17.754,0.375 17.754,0.375C17.754,0.375 15.77,6.281 16.593,8.314C17.419,10.355 19.772,11.22 21.811,10.395C23.843,9.573 24.931,7.314 24.105,5.273L24.105,5.273Z" fill="#FFFFFF"/>
<path d="M29.604,29.483C29.095,28.227 25.893,26.61 25.893,26.61C25.893,26.61 24.715,30 25.224,31.256C25.667,32.352 27.047,33.065 28.301,32.558C29.55,32.052 30.047,30.578 29.604,29.483L29.604,29.483Z" fill="#FFFFFF"/>
</svg>
